<svg xmlns="http://www.w3.org/2000/svg" width="50" height="50" fill="none"><path fill="#0F2D2E" d="M33.333 3.085a5.12 5.12 0 0 0-3.49-1.32c-1.54 0-3.237.64-4.91 1.854a.488.488 0 0 1-.578-.004C22.658 2.35 21 1.708 19.425 1.708c-2.746 0-4.813 1.903-5.394 4.967-.891 4.646 2.01 10.841 10.5 14.215a.615.615 0 0 0 .12.028.704.704 0 0 0 .111-.027c6.12-2.485 11.738-7.84 10.502-14.213-.299-1.48-.967-2.722-1.93-3.593Zm-4.33 29.912 17.238-9.166-3.251-6.186-17.335 8.657 3.348 6.695Z"/><path fill="#0F2D2E" d="m42.35 27.006-13.33 7.089a.487.487 0 0 1-.666-.213l-2.866-5.73v20.14L42.35 40.14V27.006Zm-17.839 1.145-2.865 5.731a.489.489 0 0 1-.666.213L7.65 27.006v13.133l16.861 8.153v-20.14Z"/><path fill="#0F2D2E" d="M24.345 26.302 7.01 17.645l-3.25 6.186 17.238 9.166 3.348-6.695Zm17.585-9.219-7.468-2.516c-1.764 2.778-4.797 5.39-9.35 7.235a1.212 1.212 0 0 1-.928 0c-4.47-1.772-7.476-4.31-9.254-7.034l-6.862 2.314L25 25.538l16.931-8.454Z"/></svg>